<svg width="61" height="61" viewBox="0 0 61 61" fill="none" xmlns="http://www.w3.org/2000/svg">
<g filter="url(#filter0_d_108_73)">
<path fill-rule="evenodd" clip-rule="evenodd" d="M30.5 49C41.8218 49 51 39.8218 51 28.5C51 17.1782 41.8218 8 30.5 8C19.1782 8 10 17.1782 10 28.5C10 39.8218 19.1782 49 30.5 49Z" fill="url(#paint0_angular_108_73)"/>
</g>
<g clip-path="url(#clip0_108_73)">
<path d="M36.1091 20.7556H25.8022C24.6248 20.7556 23.6667 21.7137 23.6667 22.891V33.198C23.6667 34.3756 24.6248 35.3334 25.8022 35.3334H36.1091C37.2867 35.3334 38.2445 34.3756 38.2445 33.198V22.891C38.2445 21.7137 37.2867 20.7556 36.1091 20.7556ZM37.3904 33.198C37.3904 33.9044 36.8155 34.4792 36.1091 34.4792H25.8022C25.0958 34.4792 24.5209 33.9044 24.5209 33.198V22.891C24.5209 22.1846 25.0958 21.6098 25.8022 21.6098H36.1091C36.8155 21.6098 37.3904 22.1846 37.3904 22.891V33.198Z" fill="white"/>
<path d="M35.6535 22.4924C35.1826 22.4924 34.7993 22.8757 34.7993 23.3466C34.7993 23.8175 35.1826 24.2008 35.6535 24.2008C36.1244 24.2008 36.5076 23.8175 36.5076 23.3466C36.5076 22.8757 36.1244 22.4924 35.6535 22.4924Z" fill="white"/>
<path d="M30.9556 24.2007C28.8361 24.2007 27.1118 25.925 27.1118 28.0444C27.1118 30.1639 28.8361 31.8882 30.9556 31.8882C33.075 31.8882 34.7993 30.1639 34.7993 28.0444C34.7993 25.925 33.075 24.2007 30.9556 24.2007ZM30.9556 31.034C29.307 31.034 27.966 29.693 27.966 28.0444C27.966 26.3959 29.307 25.0549 30.9556 25.0549C32.6041 25.0549 33.9451 26.3959 33.9451 28.0444C33.9451 29.693 32.6041 31.034 30.9556 31.034Z" fill="white"/>
</g>
<defs>
<filter id="filter0_d_108_73" x="0" y="0" width="61" height="61" filterUnits="userSpaceOnUse" color-interpolation-filters="sRGB">
<feFlood flood-opacity="0" result="BackgroundImageFix"/>
<feColorMatrix in="SourceAlpha" type="matrix" values="0 0 0 0 0 0 0 0 0 0 0 0 0 0 0 0 0 0 127 0" result="hardAlpha"/>
<feOffset dy="2"/>
<feGaussianBlur stdDeviation="5"/>
<feColorMatrix type="matrix" values="0 0 0 0 0 0 0 0 0 0 0 0 0 0 0 0 0 0 0.1 0"/>
<feBlend mode="normal" in2="BackgroundImageFix" result="effect1_dropShadow_108_73"/>
<feBlend mode="normal" in="SourceGraphic" in2="effect1_dropShadow_108_73" result="shape"/>
</filter>
<radialGradient id="paint0_angular_108_73" cx="0" cy="0" r="1" gradientUnits="userSpaceOnUse" gradientTransform="translate(30.5 28.5) rotate(90) scale(0.455556)">
<stop stop-color="#B8D2F1"/>
<stop offset="0.166667" stop-color="#F289AA"/>
<stop offset="0.294697" stop-color="#C68BF0"/>
<stop offset="0.427083" stop-color="#D164DA"/>
<stop offset="0.614583" stop-color="#C963E8"/>
<stop offset="0.71875" stop-color="#BFC2E8"/>
<stop offset="0.802083" stop-color="#FFC999"/>
<stop offset="0.875" stop-color="#D0D8C9"/>
<stop offset="0.928149" stop-color="#BAD0F1"/>
<stop offset="0.997133" stop-color="#CED8CB"/>
<stop offset="1" stop-color="white" stop-opacity="0"/>
</radialGradient>
<clipPath id="clip0_108_73">
<rect width="14.5778" height="14.5778" fill="white" transform="translate(23.6667 20.7556)"/>
</clipPath>
</defs>
</svg>
